<?xml version="1.0" encoding="UTF-8" standalone="no"?><!DOCTYPE svg PUBLIC "-//W3C//DTD SVG 1.1//EN" "http://www.w3.org/Graphics/SVG/1.1/DTD/svg11.dtd"><svg width="100%" height="100%" viewBox="0 0 48 48" version="1.1" xmlns="http://www.w3.org/2000/svg" xmlns:xlink="http://www.w3.org/1999/xlink" xml:space="preserve" xmlns:serif="http://www.serif.com/" style="fill-rule:evenodd;clip-rule:evenodd;stroke-linejoin:round;stroke-miterlimit:2;"><path d="M48.032,4.75c0,-2.621 -2.128,-4.75 -4.75,-4.75l-38.499,0c-2.622,0 -4.751,2.129 -4.751,4.75l0,38.5c0,2.621 2.129,4.75 4.751,4.75l38.499,0c2.622,0 4.75,-2.129 4.75,-4.75l0,-38.5Z" style="fill:#0f0f23;"/><path d="M39.825,31.912l-3.957,0l0,-6.725l-3.956,0l0,6.725l-3.956,0l5.934,6.923l5.935,-6.923Zm-26.507,6.725l0,-7.714l3.957,4.945l3.956,-4.945l0,7.714l3.956,0l0,-13.45l-3.956,0l-3.956,4.945l-3.957,-4.945l-3.955,0l0,13.45l3.955,0Zm28.286,5.934l-35.208,0c-1.636,0 -2.967,-1.331 -2.967,-2.967l0,-19.384c0,-1.637 1.331,-2.967 2.967,-2.967l35.208,0c1.636,0 2.967,1.33 2.967,2.967l0,19.384c0,1.636 -1.331,2.967 -2.967,2.967" style="fill:#0c0;fill-rule:nonzero;"/><path d="M13.658,13.647l-5.592,0l-0.562,1.399l0.562,0c0.554,0 0.949,0.107 1.185,0.32c0.236,0.213 0.353,0.49 0.353,0.834c0,0.335 -0.117,0.609 -0.353,0.822c-0.236,0.213 -0.631,0.32 -1.185,0.32l-3.099,0c-0.554,0 -0.949,-0.107 -1.184,-0.32c-0.236,-0.213 -0.354,-0.49 -0.354,-0.834c0,-0.343 0.123,-0.622 0.37,-0.839c0.248,-0.216 0.656,-0.317 1.224,-0.303l3.615,-8.976l-1.504,0c-0.554,0 -0.949,-0.106 -1.185,-0.319c-0.235,-0.212 -0.354,-0.491 -0.354,-0.834c0,-0.343 0.119,-0.621 0.354,-0.834c0.236,-0.212 0.631,-0.318 1.185,-0.318l4.975,0.011l4.581,11.27c0.539,0 0.894,0.06 1.067,0.179c0.344,0.247 0.516,0.572 0.516,0.975c0,0.335 -0.116,0.609 -0.348,0.822c-0.232,0.213 -0.625,0.32 -1.179,0.32l-3.099,0c-0.554,0 -0.949,-0.107 -1.185,-0.32c-0.236,-0.213 -0.353,-0.49 -0.353,-0.834c0,-0.335 0.117,-0.609 0.353,-0.822c0.236,-0.213 0.631,-0.32 1.185,-0.32l0.561,0l-0.55,-1.399Zm-0.954,-2.294l-1.853,-4.544l-1.864,4.544l3.717,0Z" style="fill:#0c0;fill-rule:nonzero;"/><path d="M30.625,12.45c0,0.88 -0.245,1.733 -0.736,2.558c-0.49,0.824 -1.219,1.481 -2.189,1.969c-0.969,0.489 -1.982,0.733 -3.037,0.733c-1.049,0 -2.052,-0.24 -3.01,-0.721c-0.958,-0.481 -1.688,-1.136 -2.19,-1.964c-0.501,-0.829 -0.752,-1.695 -0.752,-2.597c0,-0.918 0.255,-1.819 0.764,-2.704c0.508,-0.883 1.24,-1.579 2.195,-2.087c0.954,-0.507 1.952,-0.761 2.993,-0.761c1.048,0 2.057,0.26 3.025,0.778c0.97,0.518 1.702,1.217 2.196,2.093c0.494,0.876 0.741,1.778 0.741,2.703Zm-2.302,0.011c0,-0.739 -0.265,-1.418 -0.797,-2.036c-0.727,-0.837 -1.681,-1.254 -2.863,-1.254c-1.041,0 -1.909,0.331 -2.605,0.996c-0.696,0.664 -1.045,1.433 -1.045,2.305c0,0.717 0.352,1.386 1.056,2.009c0.704,0.624 1.568,0.936 2.594,0.936c1.032,0 1.901,-0.312 2.604,-0.936c0.704,-0.623 1.056,-1.296 1.056,-2.02Z" style="fill:#0c0;fill-rule:nonzero;"/><path d="M42.057,4.358c0.141,-0.194 0.297,-0.34 0.465,-0.437c0.169,-0.096 0.351,-0.145 0.545,-0.145c0.337,0 0.611,0.115 0.825,0.347c0.213,0.23 0.32,0.623 0.32,1.175l0,1.947c0,0.552 -0.107,0.946 -0.32,1.181c-0.214,0.235 -0.488,0.353 -0.825,0.353c-0.308,0 -0.554,-0.086 -0.741,-0.257c-0.187,-0.173 -0.326,-0.493 -0.416,-0.964c-0.052,-0.313 -0.157,-0.555 -0.315,-0.727c-0.306,-0.336 -0.735,-0.604 -1.285,-0.805c-0.551,-0.203 -1.103,-0.303 -1.656,-0.303c-0.689,0 -1.322,0.149 -1.898,0.448c-0.576,0.298 -1.085,0.784 -1.527,1.455c-0.442,0.671 -0.663,1.47 -0.663,2.395l0,1.489c0,1.105 0.403,2.026 1.208,2.765c0.805,0.738 1.921,1.107 3.351,1.107c0.854,0 1.576,-0.115 2.168,-0.346c0.344,-0.135 0.71,-0.399 1.1,-0.795c0.24,-0.239 0.426,-0.394 0.562,-0.464c0.134,-0.071 0.288,-0.107 0.46,-0.107c0.307,0 0.576,0.115 0.808,0.347c0.233,0.231 0.348,0.504 0.348,0.817c0,0.313 -0.156,0.649 -0.471,1.008c-0.457,0.522 -1.045,0.932 -1.763,1.231c-0.966,0.402 -2.032,0.604 -3.201,0.604c-1.362,0 -2.589,-0.28 -3.683,-0.839c-0.883,-0.448 -1.635,-1.155 -2.257,-2.122c-0.621,-0.966 -0.931,-2.02 -0.931,-3.162l0,-1.555c0,-1.194 0.278,-2.308 0.836,-3.342c0.558,-1.032 1.33,-1.83 2.319,-2.389c0.988,-0.56 2.036,-0.839 3.144,-0.839c0.667,0 1.29,0.076 1.87,0.229c0.579,0.153 1.12,0.386 1.623,0.7Z" style="fill:#0c0;fill-rule:nonzero;"/></svg>