<?xml version="1.0" encoding="UTF-8" standalone="no"?><!DOCTYPE svg PUBLIC "-//W3C//DTD SVG 1.1//EN" "http://www.w3.org/Graphics/SVG/1.1/DTD/svg11.dtd"><svg width="100%" height="100%" viewBox="0 0 156 156" version="1.1" xmlns="http://www.w3.org/2000/svg" xmlns:xlink="http://www.w3.org/1999/xlink" xml:space="preserve" xmlns:serif="http://www.serif.com/" style="fill-rule:evenodd;clip-rule:evenodd;stroke-linejoin:round;stroke-miterlimit:1.41421;"><path d="M138,108l-15,0l0,-25.5l-15,0l0,25.5l-15,0l22.5,26.25l22.5,-26.25Zm-100.5,25.5l0,-29.25l15,18.75l15,-18.75l0,29.25l15,0l0,-51l-15,0l-15,18.75l-15,-18.75l-15,0l0,51l15,0Zm107.25,22.5l-133.5,0c-6.203,0 -11.25,-5.047 -11.25,-11.25l0,-73.5c0,-6.203 5.047,-11.25 11.25,-11.25l133.5,0c6.203,0 11.25,5.047 11.25,11.25l0,73.5c0,6.203 -5.047,11.25 -11.25,11.25" style="fill-rule:nonzero;"/><path d="M38.787,38.747l-21.203,0l-2.129,5.305l2.129,0c2.1,0 3.598,0.404 4.492,1.21c0.894,0.806 1.341,1.86 1.341,3.162c0,1.273 -0.447,2.313 -1.341,3.119c-0.894,0.806 -2.392,1.21 -4.492,1.21l-11.751,0c-2.1,0 -3.598,-0.404 -4.492,-1.21c-0.894,-0.806 -1.341,-1.86 -1.341,-3.162c0,-1.301 0.468,-2.362 1.405,-3.183c0.937,-0.82 2.484,-1.202 4.641,-1.146l13.709,-34.036l-5.705,0c-2.1,0 -3.597,-0.403 -4.492,-1.21c-0.894,-0.806 -1.341,-1.86 -1.341,-3.162c0,-1.301 0.447,-2.355 1.341,-3.161c0.895,-0.807 2.392,-1.21 4.492,-1.21l18.862,0.043l17.371,42.736c2.043,0 3.392,0.227 4.045,0.679c1.305,0.934 1.958,2.165 1.958,3.693c0,1.273 -0.44,2.313 -1.32,3.119c-0.88,0.806 -2.37,1.21 -4.47,1.21l-11.751,0c-2.101,0 -3.598,-0.404 -4.492,-1.21c-0.894,-0.806 -1.341,-1.86 -1.341,-3.162c0,-1.273 0.447,-2.313 1.341,-3.119c0.894,-0.806 2.391,-1.21 4.492,-1.21l2.128,0l-2.086,-5.305Zm-3.619,-8.7l-7.025,-17.23l-7.068,17.23l14.093,0Z" style="fill-rule:nonzero;"/><path d="M103.12,34.206c0,3.339 -0.929,6.571 -2.789,9.698c-1.859,3.126 -4.626,5.616 -8.302,7.469c-3.676,1.853 -7.515,2.78 -11.517,2.78c-3.974,0 -7.777,-0.912 -11.41,-2.737c-3.634,-1.825 -6.401,-4.308 -8.303,-7.448c-1.902,-3.141 -2.852,-6.423 -2.852,-9.846c0,-3.481 0.965,-6.897 2.895,-10.25c1.93,-3.352 4.704,-5.991 8.323,-7.915c3.619,-1.924 7.402,-2.886 11.347,-2.886c3.974,0 7.799,0.984 11.474,2.95c3.676,1.966 6.451,4.612 8.324,7.936c1.873,3.325 2.81,6.741 2.81,10.249Zm-8.728,0.043c0,-2.801 -1.008,-5.376 -3.023,-7.724c-2.753,-3.169 -6.372,-4.753 -10.857,-4.753c-3.945,0 -7.238,1.259 -9.878,3.777c-2.639,2.518 -3.959,5.432 -3.959,8.742c0,2.716 1.334,5.256 4.002,7.618c2.668,2.363 5.946,3.544 9.835,3.544c3.917,0 7.21,-1.181 9.878,-3.544c2.668,-2.362 4.002,-4.916 4.002,-7.66Z" style="fill-rule:nonzero;"/><path d="M146.463,3.522c0.539,-0.735 1.128,-1.287 1.767,-1.655c0.638,-0.367 1.327,-0.551 2.065,-0.551c1.277,0 2.32,0.438 3.129,1.315c0.809,0.877 1.214,2.363 1.214,4.456l0,7.385c0,2.094 -0.405,3.586 -1.214,4.477c-0.809,0.892 -1.852,1.337 -3.129,1.337c-1.164,0 -2.101,-0.325 -2.81,-0.976c-0.71,-0.651 -1.235,-1.867 -1.576,-3.65c-0.198,-1.188 -0.596,-2.108 -1.192,-2.758c-1.164,-1.274 -2.789,-2.292 -4.875,-3.056c-2.086,-0.764 -4.179,-1.146 -6.28,-1.146c-2.611,0 -5.01,0.566 -7.195,1.698c-2.186,1.131 -4.116,2.971 -5.791,5.517c-1.674,2.546 -2.512,5.574 -2.512,9.082l0,5.644c0,4.188 1.526,7.682 4.577,10.483c3.052,2.801 7.288,4.202 12.709,4.202c3.236,0 5.975,-0.439 8.218,-1.316c1.305,-0.509 2.696,-1.514 4.172,-3.013c0.908,-0.906 1.618,-1.493 2.129,-1.761c0.511,-0.269 1.093,-0.404 1.746,-0.404c1.163,0 2.185,0.439 3.065,1.316c0.88,0.877 1.32,1.91 1.32,3.098c0,1.188 -0.596,2.462 -1.788,3.82c-1.732,1.98 -3.96,3.536 -6.685,4.668c-3.661,1.528 -7.706,2.292 -12.134,2.292c-5.166,0 -9.821,-1.061 -13.965,-3.183c-3.349,-1.698 -6.202,-4.379 -8.558,-8.043c-2.356,-3.664 -3.534,-7.66 -3.534,-11.989l0,-5.899c0,-4.527 1.058,-8.75 3.172,-12.668c2.115,-3.919 5.045,-6.939 8.792,-9.061c3.747,-2.122 7.721,-3.183 11.922,-3.183c2.526,0 4.889,0.29 7.089,0.87c2.199,0.58 4.25,1.464 6.152,2.652Z" style="fill-rule:nonzero;"/></svg>